<svg id="visual" viewBox="0 0 900 600" width="900" height="600" xmlns="http://www.w3.org/2000/svg" xmlns:xlink="http://www.w3.org/1999/xlink" version="1.1"><path d="M0 183L12.5 180.8C25 178.7 50 174.3 75 174.3C100 174.3 125 178.7 150 185.2C175 191.7 200 200.3 225 216C250 231.7 275 254.3 300 257.8C325 261.3 350 245.7 375 246.8C400 248 425 266 450 268.5C475 271 500 258 525 240C550 222 575 199 600 191.3C625 183.7 650 191.3 675 197.5C700 203.7 725 208.3 750 204.7C775 201 800 189 825 190.2C850 191.3 875 205.7 887.5 212.8L900 220L900 0L887.5 0C875 0 850 0 825 0C800 0 775 0 750 0C725 0 700 0 675 0C650 0 625 0 600 0C575 0 550 0 525 0C500 0 475 0 450 0C425 0 400 0 375 0C350 0 325 0 300 0C275 0 250 0 225 0C200 0 175 0 150 0C125 0 100 0 75 0C50 0 25 0 12.5 0L0 0Z" fill="#ffffff"></path><path d="M0 103L12.5 106.8C25 110.7 50 118.3 75 112.3C100 106.3 125 86.7 150 93.7C175 100.7 200 134.3 225 141.7C250 149 275 130 300 123.2C325 116.3 350 121.7 375 120.8C400 120 425 113 450 120C475 127 500 148 525 142.7C550 137.3 575 105.7 600 96.5C625 87.3 650 100.7 675 115.2C700 129.7 725 145.3 750 145.3C775 145.3 800 129.7 825 127C850 124.3 875 134.7 887.5 139.8L900 145L900 0L887.5 0C875 0 850 0 825 0C800 0 775 0 750 0C725 0 700 0 675 0C650 0 625 0 600 0C575 0 550 0 525 0C500 0 475 0 450 0C425 0 400 0 375 0C350 0 325 0 300 0C275 0 250 0 225 0C200 0 175 0 150 0C125 0 100 0 75 0C50 0 25 0 12.5 0L0 0Z" fill="#000000"></path></svg>