<svg id="visual" viewBox="0 0 900 600" width="900" height="600" xmlns="http://www.w3.org/2000/svg" xmlns:xlink="http://www.w3.org/1999/xlink" version="1.1"><g transform="translate(452.9520319039564 278.26561645160905)"><path d="M117.4 -167.6C149.5 -138.4 170.8 -100.4 187.9 -58.5C205.1 -16.6 218.1 29.3 215.5 80.1C212.8 131 194.6 186.8 156.1 222.5C117.6 258.1 58.8 273.6 18.4 248.3C-22 223 -44.1 157 -76.4 119.4C-108.8 81.7 -151.4 72.4 -181.6 43.8C-211.8 15.2 -229.5 -32.5 -218.4 -72.3C-207.4 -112.1 -167.5 -143.8 -126.2 -170.1C-85 -196.4 -42.5 -217.2 0.1 -217.3C42.7 -217.5 85.4 -196.9 117.4 -167.6" fill="#FFFFFF"></path></g></svg>