<svg id="visual" viewBox="0 0 900 600" width="900" height="600" xmlns="http://www.w3.org/2000/svg" xmlns:xlink="http://www.w3.org/1999/xlink" version="1.1"><g transform="translate(475.03838778412955 327.7482072721392)"><path d="M134.5 -189.8C162.4 -164.8 164.9 -109.6 169.8 -62.7C174.7 -15.8 182 22.9 165.1 47.1C148.2 71.3 107.2 81.2 75.6 98.3C44.1 115.3 22 139.7 -10.1 153.6C-42.3 167.6 -84.6 171.2 -108.4 151.6C-132.2 131.9 -137.4 89.2 -159.2 46.1C-181 3 -219.4 -40.4 -225 -88.6C-230.6 -136.7 -203.5 -189.7 -160.5 -209.8C-117.6 -229.8 -58.8 -216.9 -2.7 -213.1C53.3 -209.4 106.6 -214.7 134.5 -189.8" fill="#FFFFFF"></path></g></svg>