<?xml version="1.0" standalone="no"?>
<!DOCTYPE svg PUBLIC "-//W3C//DTD SVG 20010904//EN"
 "http://www.w3.org/TR/2001/REC-SVG-20010904/DTD/svg10.dtd">
<svg version="1.0" xmlns="http://www.w3.org/2000/svg"
 width="955.000000pt" height="670.000000pt" viewBox="0 0 955.000000 670.000000"
 preserveAspectRatio="xMidYMid meet">
<metadata>
Created by potrace 1.16, written by Peter Selinger 2001-2019
</metadata>
<g transform="translate(0.000000,670.000000) scale(0.100000,-0.100000)"
fill="#000000" stroke="none">
<path d="M0 6224 l0 -476 45 -44 c25 -23 45 -50 45 -59 0 -8 7 -18 15 -21 10
-4 13 -13 10 -24 -3 -11 1 -20 10 -24 11 -4 14 -13 10 -25 -3 -11 1 -25 10
-34 12 -12 15 -42 15 -141 0 -77 -4 -126 -10 -126 -5 0 -10 -20 -10 -45 0 -25
-4 -45 -9 -45 -5 0 -12 -16 -15 -35 -4 -19 -11 -35 -16 -35 -6 0 -10 -11 -10
-25 0 -14 -6 -25 -14 -25 -9 0 -12 -8 -8 -26 3 -18 0 -30 -11 -35 -9 -6 -13
-17 -10 -29 4 -14 0 -20 -11 -20 -12 0 -16 -9 -16 -35 0 -19 -4 -35 -10 -35
-6 0 -10 -80 -10 -220 0 -140 4 -220 10 -220 6 0 10 -7 10 -15 0 -19 106 -125
125 -125 8 0 15 -4 15 -10 0 -6 33 -10 80 -10 47 0 80 4 80 10 0 6 11 10 25
10 16 0 25 6 25 15 0 8 9 15 20 15 11 0 20 5 20 10 0 6 5 10 11 10 11 0 39 25
39 35 0 4 6 13 13 20 31 36 37 46 37 65 0 11 5 20 10 20 6 0 10 9 10 20 0 11
7 20 15 20 12 0 15 17 15 95 0 78 -3 95 -15 95 -10 0 -15 11 -15 35 0 19 -4
35 -10 35 -5 0 -10 9 -10 20 0 11 -4 20 -10 20 -5 0 -10 11 -10 25 0 16 -6 25
-15 25 -8 0 -15 9 -15 20 0 11 -4 20 -10 20 -5 0 -10 14 -10 30 0 17 -4 30
-10 30 -5 0 -10 9 -10 20 0 12 -7 20 -16 20 -12 0 -15 7 -12 31 3 20 0 33 -9
36 -7 3 -13 20 -13 39 0 19 -4 34 -10 34 -5 0 -10 20 -10 45 0 31 -4 45 -13
45 -19 0 -18 341 1 348 7 2 12 21 12 48 0 24 5 44 10 44 6 0 10 20 10 45 0 25
5 45 10 45 6 0 10 16 10 35 0 24 5 35 15 35 10 0 15 11 15 35 0 19 5 35 10 35
6 0 10 9 10 20 0 11 5 20 10 20 6 0 10 5 10 11 0 11 25 39 35 39 4 0 13 7 21
15 9 8 24 15 34 15 10 0 22 5 25 10 9 15 34 12 51 -5 9 -8 26 -15 40 -15 13 0
24 -4 24 -10 0 -5 5 -10 11 -10 20 0 39 -29 39 -59 0 -17 5 -31 10 -31 6 0 10
-27 10 -60 0 -33 4 -60 10 -60 6 0 10 -55 10 -145 0 -124 2 -145 17 -153 15
-9 16 -43 10 -406 -5 -341 -4 -398 9 -403 11 -4 14 -31 14 -139 0 -118 -2
-134 -17 -134 -15 0 -16 -16 -9 -180 5 -155 4 -183 -9 -196 -11 -11 -15 -37
-15 -95 0 -46 -4 -79 -10 -79 -6 0 -10 -42 -10 -105 0 -63 -4 -105 -10 -105
-6 0 -10 -42 -10 -105 0 -87 -3 -105 -15 -105 -13 0 -15 -21 -15 -125 0 -77
-4 -125 -10 -125 -14 0 -13 -227 1 -232 6 -2 12 -21 13 -41 2 -21 8 -43 15
-50 6 -6 11 -17 11 -24 0 -8 14 -27 30 -43 26 -26 38 -30 85 -30 50 0 58 3 95
40 22 21 40 48 40 60 0 11 7 20 15 20 10 0 15 11 15 35 0 19 5 35 10 35 15 0
14 477 -1 482 -8 3 -11 42 -11 116 1 96 -2 112 -15 112 -14 0 -15 18 -10 160
6 139 5 160 -8 160 -13 0 -15 37 -15 276 0 219 3 278 14 289 10 11 12 41 8
136 -4 106 -3 123 12 131 13 7 16 26 16 98 0 53 4 90 10 90 6 0 10 16 10 35 0
19 5 35 10 35 6 0 10 9 10 19 0 11 5 23 10 26 5 3 10 15 10 26 0 10 5 19 11
19 14 0 39 25 39 39 0 6 6 11 14 11 8 0 18 9 21 20 3 11 13 20 21 20 8 0 14 5
14 11 0 17 27 39 49 39 12 0 21 5 21 10 0 6 16 10 35 10 19 0 35 5 35 10 0 6
48 10 125 10 77 0 125 -4 125 -10 0 -5 20 -10 45 -10 25 0 45 -4 45 -10 0 -5
11 -10 25 -10 16 0 25 -6 25 -16 0 -13 7 -15 35 -10 28 6 35 4 35 -9 0 -9 9
-15 23 -15 12 0 29 -9 37 -20 8 -11 20 -20 28 -20 19 0 142 -126 142 -145 0
-8 5 -15 10 -15 6 0 10 -11 10 -24 0 -13 5 -26 12 -28 8 -3 11 -23 9 -56 -2
-40 1 -53 13 -58 22 -8 23 -114 2 -114 -11 0 -14 -16 -11 -80 2 -63 0 -80 -11
-80 -10 0 -14 -15 -14 -60 0 -33 -4 -60 -10 -60 -5 0 -10 -16 -10 -35 0 -19
-4 -35 -10 -35 -6 0 -10 -40 -10 -100 0 -60 4 -100 10 -100 6 0 10 -9 10 -20
0 -24 53 -80 75 -80 8 0 15 -4 15 -10 0 -5 11 -10 25 -10 14 0 25 -4 25 -10 0
-5 16 -10 35 -10 19 0 35 5 35 10 0 6 7 10 16 10 20 0 74 54 74 74 0 9 5 16
10 16 6 0 10 11 10 25 0 16 6 25 15 25 11 0 15 12 15 45 0 35 -4 45 -16 45
-14 0 -15 7 -10 45 6 37 4 45 -8 45 -13 0 -16 13 -16 70 0 40 -4 70 -10 70 -6
0 -10 42 -10 105 0 63 4 105 10 105 6 0 10 11 10 25 0 14 5 25 10 25 6 0 10 9
10 20 0 11 7 20 15 20 8 0 15 9 15 20 0 24 71 100 94 100 9 0 16 5 16 10 0 6
27 10 60 10 33 0 60 -4 60 -10 0 -5 12 -10 26 -10 32 0 174 -139 174 -170 0
-11 5 -20 11 -20 17 0 39 -27 39 -49 0 -12 5 -21 10 -21 6 0 10 -14 10 -31 0
-17 7 -37 15 -45 8 -9 15 -24 15 -35 0 -10 5 -19 10 -19 6 0 10 -22 10 -50 0
-27 5 -50 10 -50 6 0 10 -28 10 -64 0 -50 4 -65 16 -70 15 -6 16 -20 11 -117
-5 -90 -3 -111 9 -116 12 -4 14 -60 14 -348 0 -266 -3 -344 -12 -347 -10 -4
-13 -47 -14 -168 0 -116 -4 -165 -12 -168 -8 -2 -12 -37 -12 -108 0 -63 -4
-104 -10 -104 -6 0 -10 -33 -10 -79 0 -44 -4 -81 -10 -83 -6 -2 -11 -29 -13
-60 -1 -38 -6 -58 -14 -58 -9 0 -13 -21 -13 -70 0 -40 -4 -70 -10 -70 -5 0
-10 -25 -10 -55 0 -30 -4 -55 -10 -55 -6 0 -10 -27 -10 -60 0 -47 -3 -60 -15
-60 -12 0 -15 -16 -15 -80 0 -47 -4 -80 -10 -80 -6 0 -10 -41 -10 -104 0 -63
-4 -106 -10 -108 -17 -5 -19 -368 -2 -368 9 0 12 -39 12 -160 0 -100 4 -160
10 -160 6 0 10 -30 10 -70 0 -56 3 -70 15 -70 10 0 15 -11 15 -35 0 -19 5 -35
10 -35 6 0 10 -9 10 -20 0 -11 5 -20 10 -20 6 0 10 -11 10 -25 0 -14 5 -25 11
-25 11 0 39 -25 39 -35 0 -8 27 -35 35 -35 3 0 17 -11 30 -24 20 -20 34 -24
80 -24 38 0 58 5 62 14 3 8 14 14 24 14 10 0 19 5 19 10 0 6 5 10 11 10 11 0
39 25 39 35 0 10 28 35 39 35 6 0 11 10 11 23 0 12 9 29 20 37 11 8 20 21 20
30 0 8 7 24 15 34 8 11 15 35 15 53 0 18 5 33 10 33 13 0 14 387 1 392 -5 2
-11 47 -13 101 -3 69 -8 101 -18 107 -10 6 -12 26 -7 84 6 63 4 76 -8 76 -12
0 -15 15 -15 70 0 40 -4 70 -10 70 -6 0 -10 28 -10 65 0 48 -4 67 -15 71 -11
5 -13 22 -10 85 4 65 2 79 -10 79 -12 0 -15 15 -15 70 0 40 -4 70 -10 70 -6 0
-10 28 -10 64 0 46 -4 65 -14 69 -12 5 -14 29 -10 131 4 108 2 126 -11 126
-13 0 -15 66 -15 550 0 481 2 550 15 550 13 0 14 40 12 311 -2 226 0 312 8
315 8 3 12 64 14 197 1 111 6 193 11 195 6 2 10 26 10 53 0 27 5 49 10 49 6 0
10 17 10 38 0 20 7 46 15 56 8 11 15 28 15 38 0 10 5 18 10 18 6 0 10 11 10
25 0 14 5 25 10 25 6 0 10 11 10 25 0 14 4 25 9 25 10 0 41 56 41 74 0 7 9 18
20 26 11 8 20 22 20 31 0 9 11 25 25 35 14 10 25 27 25 37 0 18 22 47 35 47
10 0 35 28 35 39 0 6 9 11 20 11 11 0 20 5 20 10 0 6 6 10 13 10 7 0 19 9 27
20 8 11 23 20 33 20 9 0 20 7 23 15 4 8 15 15 25 15 10 0 19 5 19 10 0 6 16
10 35 10 19 0 35 5 35 10 0 6 10 10 23 10 12 0 33 7 45 16 15 10 39 14 69 13
30 -2 48 1 51 9 2 8 28 12 73 12 39 0 69 4 69 10 0 6 87 10 240 10 153 0 240
-4 240 -10 0 -6 33 -10 80 -10 47 0 80 -4 80 -10 0 -6 30 -10 70 -10 56 0 70
-3 70 -15 0 -11 12 -15 44 -15 25 0 48 -4 51 -10 3 -5 26 -10 51 -10 24 0 44
-4 44 -10 0 -5 13 -10 29 -10 16 0 31 -6 35 -15 3 -8 15 -15 26 -15 11 0 20
-4 20 -10 0 -5 16 -10 35 -10 19 0 35 -4 35 -10 0 -5 9 -10 20 -10 11 0 23 -7
26 -15 4 -8 15 -15 25 -15 10 0 19 -4 19 -10 0 -5 11 -10 25 -10 14 0 25 -4
25 -10 0 -5 7 -10 16 -10 9 0 27 -11 40 -25 13 -14 30 -25 39 -25 8 0 15 -4
15 -10 0 -5 4 -10 10 -10 6 0 37 -27 70 -60 33 -33 60 -64 60 -70 0 -6 5 -10
11 -10 17 0 39 -27 39 -49 0 -12 5 -21 10 -21 6 0 10 -9 10 -20 0 -11 5 -20
10 -20 6 0 10 -10 10 -23 0 -13 7 -32 15 -43 11 -15 13 -38 8 -106 -5 -78 -4
-88 11 -88 13 0 16 -12 16 -79 0 -44 4 -81 9 -83 5 -1 11 -41 13 -88 1 -47 6
-88 11 -91 5 -3 9 -61 10 -128 2 -90 6 -124 16 -130 11 -7 12 -41 8 -175 -4
-137 -2 -166 9 -166 11 0 14 -19 14 -80 0 -47 -4 -80 -10 -80 -6 0 -10 -47
-10 -120 0 -104 -2 -120 -16 -120 -14 0 -15 -8 -9 -55 5 -46 4 -55 -9 -55 -13
0 -16 -12 -16 -55 0 -30 -4 -55 -10 -55 -6 0 -10 -57 -10 -150 0 -93 4 -150
10 -150 6 0 10 -11 10 -25 0 -16 6 -25 15 -25 8 0 15 -3 15 -7 0 -5 11 -20 24
-35 22 -26 29 -28 100 -28 44 0 76 4 76 10 0 6 11 10 25 10 14 0 25 5 25 11 0
11 25 39 35 39 18 0 35 33 35 69 0 30 4 41 15 41 11 0 15 12 15 50 0 38 -4 50
-15 50 -12 0 -15 13 -15 55 0 30 -4 55 -10 55 -5 0 -10 11 -10 24 0 14 -7 32
-16 41 -11 11 -14 25 -10 45 4 22 2 30 -9 30 -10 0 -15 11 -15 35 0 19 -4 35
-10 35 -5 0 -10 11 -10 24 0 14 -7 31 -15 40 -8 8 -15 21 -15 30 0 8 -4 18
-10 21 -5 3 -10 26 -10 51 0 24 -4 44 -10 44 -7 0 -10 257 -10 750 0 598 3
750 13 750 9 0 11 33 9 145 -4 126 -2 146 12 151 12 5 16 21 16 70 0 36 4 64
10 64 6 0 10 30 10 70 0 40 4 70 10 70 6 0 10 23 10 50 0 28 5 50 10 50 6 0
10 14 10 30 0 18 6 33 15 36 9 4 15 19 15 35 0 16 5 29 10 29 6 0 10 11 10 25
0 14 6 25 13 25 7 0 18 20 25 45 7 25 16 45 22 45 5 0 10 9 10 20 0 22 75 100
96 100 8 0 14 5 14 10 0 6 11 10 25 10 14 0 25 5 25 10 0 6 30 10 70 10 40 0
70 -4 70 -10 0 -5 9 -10 20 -10 11 0 20 -4 20 -10 0 -5 7 -10 15 -10 8 0 15
-5 15 -11 0 -6 16 -26 36 -44 20 -19 33 -38 29 -44 -3 -6 1 -14 9 -17 9 -3 16
-15 16 -25 0 -10 5 -19 10 -19 6 0 10 -11 10 -25 0 -14 5 -25 10 -25 6 0 10
-11 10 -25 0 -16 6 -25 15 -25 8 0 15 -9 15 -20 0 -11 5 -20 10 -20 6 0 10
-16 10 -35 0 -19 5 -35 10 -35 6 0 10 -15 10 -33 0 -18 7 -42 15 -53 8 -10 15
-38 15 -61 0 -24 5 -43 10 -43 6 0 10 -25 10 -55 0 -30 5 -55 10 -55 6 0 10
-30 10 -70 0 -56 3 -70 15 -70 12 0 15 -14 15 -70 0 -40 4 -70 10 -70 6 0 10
-42 10 -105 0 -63 4 -105 10 -105 6 0 10 -33 10 -80 0 -66 3 -80 16 -80 13 0
15 -11 12 -67 -2 -47 1 -68 10 -70 8 -3 12 -29 12 -84 0 -46 4 -79 10 -79 6 0
10 -36 10 -89 0 -63 4 -91 13 -94 8 -3 12 -30 10 -95 -1 -78 1 -92 14 -92 14
0 15 -13 10 -100 -5 -84 -4 -100 8 -100 13 0 15 -51 15 -360 0 -233 -4 -360
-10 -360 -6 0 -10 -30 -10 -69 0 -44 -4 -71 -12 -73 -7 -3 -12 -26 -12 -56 -1
-35 -5 -52 -13 -52 -8 0 -13 -14 -13 -35 0 -19 -4 -35 -10 -35 -5 0 -10 -22
-10 -50 0 -27 -4 -50 -10 -50 -5 0 -10 -9 -10 -20 0 -11 -7 -20 -15 -20 -10 0
-15 -11 -15 -35 0 -19 -4 -35 -10 -35 -5 0 -10 -16 -10 -35 0 -19 -4 -35 -10
-35 -5 0 -10 -9 -10 -19 0 -10 -7 -21 -15 -25 -9 -3 -15 -18 -15 -36 0 -16 -4
-30 -10 -30 -5 0 -10 -11 -10 -25 0 -14 -4 -25 -10 -25 -5 0 -10 -16 -10 -35
0 -24 -5 -35 -15 -35 -11 0 -13 -8 -9 -30 5 -22 2 -31 -10 -36 -11 -4 -16 -19
-16 -50 0 -24 -4 -44 -10 -44 -5 0 -10 -16 -10 -35 0 -24 -5 -35 -15 -35 -11
0 -15 -12 -15 -45 0 -25 -4 -45 -10 -45 -6 0 -10 -57 -10 -150 0 -93 4 -150
10 -150 6 0 10 -16 10 -35 0 -24 5 -35 15 -35 8 0 15 -9 15 -20 0 -19 93 -120
110 -120 6 0 10 -4 10 -10 0 -5 9 -10 20 -10 11 0 20 -7 20 -15 0 -10 11 -15
35 -15 19 0 35 -4 35 -10 0 -6 30 -10 70 -10 40 0 70 4 70 10 0 6 16 10 35 10
24 0 35 5 35 15 0 10 10 15 33 15 21 0 38 7 47 20 8 11 20 20 27 20 15 0 73
55 73 70 0 6 11 21 25 34 14 13 25 33 25 45 0 11 5 21 10 21 6 0 10 9 10 20 0
11 7 20 15 20 13 0 15 18 11 131 -2 76 -9 136 -15 142 -6 6 -11 35 -11 64 0
29 -4 53 -10 53 -6 0 -10 27 -10 60 0 33 -4 60 -10 60 -5 0 -10 20 -10 45 0
33 -4 45 -15 45 -11 0 -15 12 -15 45 0 25 -4 45 -10 45 -5 0 -10 16 -10 35 0
19 -4 35 -10 35 -5 0 -10 20 -10 45 0 33 -4 45 -15 45 -11 0 -15 12 -15 45 0
25 -4 45 -10 45 -5 0 -10 23 -10 50 0 28 -4 50 -10 50 -6 0 -10 45 -10 115 0
89 -3 115 -13 115 -11 0 -13 30 -11 150 3 126 1 150 -11 150 -13 0 -15 26 -15
160 0 100 -4 160 -10 160 -7 0 -10 153 -10 440 0 287 3 440 10 440 6 0 10 42
10 105 0 91 2 105 16 105 15 0 16 10 11 76 -4 60 -3 76 9 81 9 3 14 20 14 49
0 24 5 44 10 44 6 0 10 23 10 50 0 28 5 50 10 50 6 0 10 14 10 30 0 17 4 30
10 30 5 0 12 11 16 25 3 14 10 25 15 25 5 0 9 16 9 35 0 19 5 35 10 35 6 0 10
9 10 20 0 11 4 20 9 20 5 0 13 10 17 23 4 12 15 29 25 38 11 9 19 21 19 28 0
6 5 11 10 11 6 0 10 9 10 20 0 11 5 20 11 20 14 0 39 25 39 39 0 6 10 11 23
11 13 0 34 15 52 35 16 19 38 35 47 35 10 0 18 5 18 10 0 6 9 10 20 10 11 0
20 5 20 10 0 6 7 10 15 10 8 0 15 7 15 15 0 8 9 15 20 15 11 0 20 5 20 10 0 6
11 10 25 10 14 0 25 5 25 10 0 6 9 10 19 10 11 0 23 5 26 10 3 6 19 10 36 10
19 0 29 5 29 15 0 10 11 15 35 15 19 0 35 5 35 10 0 6 23 10 50 10 28 0 50 5
50 10 0 6 28 10 65 10 44 0 67 4 70 13 4 9 47 12 173 12 92 0 170 -4 173 -8 3
-4 31 -11 62 -14 32 -3 57 -10 57 -14 0 -5 9 -9 20 -9 11 0 20 -4 20 -10 0 -5
11 -10 25 -10 14 0 25 -4 25 -9 0 -5 9 -12 19 -16 32 -10 161 -142 161 -165 0
-11 7 -20 15 -20 11 0 14 -7 9 -24 -3 -14 0 -29 10 -39 24 -23 24 -307 0 -307
-13 0 -15 -9 -9 -65 6 -55 5 -66 -9 -71 -12 -5 -16 -20 -16 -60 0 -30 -4 -54
-10 -54 -6 0 -10 -26 -10 -59 0 -38 -4 -61 -12 -63 -8 -3 -12 -26 -11 -70 2
-50 -1 -67 -12 -72 -10 -3 -15 -19 -15 -46 0 -22 -4 -40 -10 -40 -5 0 -10 -24
-10 -54 0 -38 -4 -55 -15 -60 -12 -4 -14 -21 -9 -96 5 -79 4 -90 -11 -90 -14
0 -16 -18 -13 -170 2 -135 5 -171 16 -175 10 -4 13 -14 8 -35 -4 -22 -2 -30 9
-30 8 0 15 -9 15 -20 0 -17 90 -120 106 -120 3 0 12 -7 20 -15 22 -22 194 -22
194 0 0 9 9 15 21 15 22 0 65 41 75 73 3 9 10 17 15 17 5 0 9 16 9 35 0 24 5
35 15 35 13 0 15 31 15 220 0 189 -2 220 -15 220 -12 0 -15 14 -15 70 0 40 -4
70 -10 70 -5 0 -10 24 -10 54 0 38 -4 56 -14 59 -11 5 -13 19 -9 61 5 48 3 56
-11 56 -13 0 -16 11 -16 65 0 37 -4 65 -10 65 -6 0 -10 58 -10 155 0 97 4 155
10 155 6 0 10 30 10 70 0 58 3 70 16 70 12 0 15 7 11 27 -3 16 1 32 9 40 8 8
14 25 14 39 0 13 5 24 10 24 6 0 10 16 10 35 0 19 5 35 10 35 6 0 10 9 10 21
0 11 6 27 13 34 31 36 37 46 37 65 0 11 5 20 10 20 6 0 10 11 10 25 0 14 3 25
8 25 8 0 42 57 42 71 0 15 44 56 68 63 22 7 22 7 22 347 l0 339 -4775 0 -4775
0 0 -476z"/>
<path d="M8370 2635 c0 -8 -4 -15 -10 -15 -5 0 -10 -20 -10 -45 0 -30 -4 -45
-13 -45 -9 0 -12 -18 -9 -70 4 -59 2 -70 -12 -70 -12 0 -16 -10 -16 -45 0 -25
-4 -45 -10 -45 -5 0 -10 -20 -10 -45 0 -25 -4 -45 -10 -45 -5 0 -10 -20 -10
-45 0 -33 -4 -45 -15 -45 -10 0 -15 -11 -15 -35 0 -19 -4 -35 -10 -35 -5 0
-10 -16 -10 -35 0 -19 -4 -35 -10 -35 -5 0 -10 -16 -10 -35 0 -19 -4 -35 -10
-35 -5 0 -10 -16 -10 -35 0 -24 -5 -35 -15 -35 -9 0 -15 -9 -15 -25 0 -14 -4
-25 -10 -25 -5 0 -10 -16 -10 -35 0 -19 -4 -35 -10 -35 -5 0 -10 -9 -10 -20 0
-11 -7 -20 -15 -20 -10 0 -15 -11 -15 -35 0 -19 -4 -35 -10 -35 -5 0 -10 -11
-10 -25 0 -14 -4 -25 -10 -25 -5 0 -10 -16 -10 -35 0 -24 -5 -35 -15 -35 -8 0
-15 -9 -15 -20 0 -11 -4 -20 -10 -20 -5 0 -10 -11 -10 -25 0 -16 -6 -25 -16
-25 -10 0 -14 -6 -10 -15 5 -15 -23 -75 -36 -75 -5 0 -8 -11 -8 -25 0 -14 -4
-25 -10 -25 -5 0 -10 -9 -10 -19 0 -11 -4 -23 -10 -26 -5 -3 -10 -15 -10 -26
0 -10 -7 -19 -15 -19 -9 0 -15 -9 -15 -25 0 -14 -4 -25 -10 -25 -5 0 -10 -16
-10 -35 0 -19 -4 -35 -10 -35 -5 0 -10 -9 -10 -20 0 -11 -7 -20 -15 -20 -9 0
-15 -9 -15 -25 0 -14 -4 -25 -10 -25 -5 0 -10 -16 -10 -35 0 -19 -4 -35 -10
-35 -5 0 -10 -14 -10 -30 0 -18 -6 -33 -15 -36 -9 -4 -15 -19 -15 -35 0 -16
-4 -29 -10 -29 -6 0 -10 -62 -10 -165 0 -103 4 -165 10 -165 6 0 10 -14 10
-30 0 -18 6 -33 15 -36 9 -4 15 -19 15 -40 0 -19 5 -34 10 -34 6 0 10 -12 10
-27 1 -31 21 -63 39 -63 6 0 11 -10 11 -23 0 -12 9 -29 20 -37 11 -8 20 -20
20 -28 0 -7 11 -23 25 -36 14 -13 25 -29 25 -35 0 -41 5 -41 579 -41 494 0
551 2 551 16 0 8 16 30 35 48 19 19 35 41 35 50 0 9 5 16 10 16 6 0 10 11 10
25 0 16 6 25 16 25 11 0 14 6 9 20 -4 13 -1 22 9 26 10 4 16 18 16 40 0 19 5
34 10 34 6 0 10 14 10 30 0 21 5 30 16 30 14 0 16 11 12 70 -3 52 0 70 9 70
10 0 13 33 13 140 0 120 -2 140 -16 140 -12 0 -14 8 -8 45 5 38 4 45 -10 45
-10 0 -16 9 -16 25 0 14 -4 25 -10 25 -5 0 -10 12 -10 28 -1 30 -21 62 -39 62
-6 0 -11 9 -11 20 0 11 -4 20 -10 20 -5 0 -10 11 -10 25 0 14 -4 25 -10 25 -5
0 -10 11 -10 25 0 14 -5 25 -11 25 -17 0 -39 27 -39 49 0 12 -4 21 -10 21 -5
0 -10 9 -10 20 0 11 -4 20 -9 20 -5 0 -13 10 -17 23 -4 12 -15 29 -25 38 -11
9 -19 26 -19 38 0 11 -5 21 -11 21 -17 0 -39 27 -39 49 0 12 -4 21 -10 21 -5
0 -10 9 -10 20 0 11 -4 20 -10 20 -5 0 -10 9 -10 20 0 11 -7 23 -15 26 -8 4
-15 16 -15 28 0 12 -9 28 -20 36 -11 8 -20 23 -20 33 0 9 -7 20 -15 23 -8 4
-15 15 -15 25 0 10 -4 19 -10 19 -5 0 -10 9 -10 20 0 11 -4 20 -9 20 -5 0 -12
11 -15 25 -4 14 -11 25 -16 25 -6 0 -10 11 -10 25 0 14 -4 25 -10 25 -5 0 -10
9 -10 20 0 11 -4 20 -10 20 -5 0 -10 11 -10 24 0 13 -6 26 -14 29 -7 3 -13 18
-13 33 0 16 -6 30 -12 32 -6 2 -11 15 -11 28 0 13 -4 24 -10 24 -5 0 -10 13
-10 29 0 16 -6 31 -15 35 -10 4 -13 14 -9 35 5 23 2 32 -9 37 -12 4 -15 14
-10 35 4 22 2 29 -11 29 -12 0 -16 9 -16 35 0 19 -4 35 -10 35 -5 0 -10 20
-10 44 0 31 -5 46 -16 50 -13 5 -15 16 -9 61 5 46 4 55 -9 55 -12 0 -16 11
-16 45 0 25 -4 45 -10 45 -5 0 -10 7 -10 15 0 8 -7 15 -15 15 -8 0 -15 -7 -15
-15z"/>
</g>
</svg>
