<svg id="visual" viewBox="0 0 900 600" width="900" height="600" xmlns="http://www.w3.org/2000/svg" xmlns:xlink="http://www.w3.org/1999/xlink" version="1.1"><path d="M0 339L15 369.5C30 400 60 461 90 493.2C120 525.3 150 528.7 180 512.2C210 495.7 240 459.3 270 455.2C300 451 330 479 360 473.8C390 468.7 420 430.3 450 402.8C480 375.3 510 358.7 540 392.2C570 425.7 600 509.3 630 511.2C660 513 690 433 720 407C750 381 780 409 810 401.8C840 394.7 870 352.3 885 331.2L900 310L900 601L885 601C870 601 840 601 810 601C780 601 750 601 720 601C690 601 660 601 630 601C600 601 570 601 540 601C510 601 480 601 450 601C420 601 390 601 360 601C330 601 300 601 270 601C240 601 210 601 180 601C150 601 120 601 90 601C60 601 30 601 15 601L0 601Z" fill="#ffffff" stroke-linecap="round" stroke-linejoin="miter"></path></svg>