<svg id="visual" viewBox="0 0 900 600" width="900" height="600" xmlns="http://www.w3.org/2000/svg" xmlns:xlink="http://www.w3.org/1999/xlink" version="1.1"><path d="M0 258L6.5 309.5C13 361 26 464 39 514.2C52 564.3 65 561.7 78 512.2C91 462.7 104 366.3 117.2 359.8C130.3 353.3 143.7 436.7 156.8 473.2C170 509.7 183 499.3 196 456.8C209 414.3 222 339.7 235 349.5C248 359.3 261 453.7 274 508.7C287 563.7 300 579.3 313 554.5C326 529.7 339 464.3 352 409C365 353.7 378 308.3 391 327.8C404 347.3 417 431.7 430.2 456.2C443.3 480.7 456.7 445.3 469.8 406.5C483 367.7 496 325.3 509 352.3C522 379.3 535 475.7 548 481.2C561 486.7 574 401.3 587 380.2C600 359 613 402 626 397.3C639 392.7 652 340.3 665 319C678 297.7 691 307.3 704 297.2C717 287 730 257 743.2 279.7C756.3 302.3 769.7 377.7 782.8 403C796 428.3 809 403.7 822 416.3C835 429 848 479 861 454.7C874 430.3 887 331.7 893.5 282.3L900 233L900 0L893.5 0C887 0 874 0 861 0C848 0 835 0 822 0C809 0 796 0 782.8 0C769.7 0 756.3 0 743.2 0C730 0 717 0 704 0C691 0 678 0 665 0C652 0 639 0 626 0C613 0 600 0 587 0C574 0 561 0 548 0C535 0 522 0 509 0C496 0 483 0 469.8 0C456.7 0 443.3 0 430.2 0C417 0 404 0 391 0C378 0 365 0 352 0C339 0 326 0 313 0C300 0 287 0 274 0C261 0 248 0 235 0C222 0 209 0 196 0C183 0 170 0 156.8 0C143.7 0 130.3 0 117.2 0C104 0 91 0 78 0C65 0 52 0 39 0C26 0 13 0 6.5 0L0 0Z" fill="#000000"></path><path d="M0 252L6.5 248C13 244 26 236 39 229.5C52 223 65 218 78 248.3C91 278.7 104 344.3 117.2 368.2C130.3 392 143.7 374 156.8 341.5C170 309 183 262 196 279.7C209 297.3 222 379.7 235 383.2C248 386.7 261 311.3 274 291C287 270.7 300 305.3 313 299.8C326 294.3 339 248.7 352 231.2C365 213.7 378 224.3 391 223.7C404 223 417 211 430.2 196.2C443.3 181.3 456.7 163.7 469.8 181.5C483 199.3 496 252.7 509 269C522 285.3 535 264.7 548 278.5C561 292.3 574 340.7 587 357.8C600 375 613 361 626 341.5C639 322 652 297 665 294.5C678 292 691 312 704 323C717 334 730 336 743.2 357.3C756.3 378.7 769.7 419.3 782.8 434.5C796 449.7 809 439.3 822 422.5C835 405.7 848 382.3 861 375.7C874 369 887 379 893.5 384L900 389L900 0L893.5 0C887 0 874 0 861 0C848 0 835 0 822 0C809 0 796 0 782.8 0C769.7 0 756.3 0 743.2 0C730 0 717 0 704 0C691 0 678 0 665 0C652 0 639 0 626 0C613 0 600 0 587 0C574 0 561 0 548 0C535 0 522 0 509 0C496 0 483 0 469.8 0C456.7 0 443.3 0 430.2 0C417 0 404 0 391 0C378 0 365 0 352 0C339 0 326 0 313 0C300 0 287 0 274 0C261 0 248 0 235 0C222 0 209 0 196 0C183 0 170 0 156.8 0C143.7 0 130.3 0 117.2 0C104 0 91 0 78 0C65 0 52 0 39 0C26 0 13 0 6.5 0L0 0Z" fill="#000000"></path><path d="M0 310L6.5 315.3C13 320.7 26 331.3 39 307.2C52 283 65 224 78 179.5C91 135 104 105 117.2 122.8C130.3 140.7 143.7 206.3 156.8 211.7C170 217 183 162 196 171.8C209 181.7 222 256.3 235 257C248 257.7 261 184.3 274 184.5C287 184.7 300 258.3 313 287.3C326 316.3 339 300.7 352 301.3C365 302 378 319 391 299.5C404 280 417 224 430.2 206.7C443.3 189.3 456.7 210.7 469.8 229.7C483 248.7 496 265.3 509 254.8C522 244.3 535 206.7 548 187.2C561 167.7 574 166.3 587 175.5C600 184.7 613 204.3 626 203.5C639 202.7 652 181.3 665 166C678 150.7 691 141.3 704 147.7C717 154 730 176 743.2 188.8C756.3 201.7 769.7 205.3 782.8 226.3C796 247.3 809 285.7 822 279.2C835 272.7 848 221.3 861 215.8C874 210.3 887 250.7 893.5 270.8L900 291L900 0L893.5 0C887 0 874 0 861 0C848 0 835 0 822 0C809 0 796 0 782.8 0C769.7 0 756.3 0 743.2 0C730 0 717 0 704 0C691 0 678 0 665 0C652 0 639 0 626 0C613 0 600 0 587 0C574 0 561 0 548 0C535 0 522 0 509 0C496 0 483 0 469.8 0C456.7 0 443.3 0 430.2 0C417 0 404 0 391 0C378 0 365 0 352 0C339 0 326 0 313 0C300 0 287 0 274 0C261 0 248 0 235 0C222 0 209 0 196 0C183 0 170 0 156.8 0C143.7 0 130.3 0 117.2 0C104 0 91 0 78 0C65 0 52 0 39 0C26 0 13 0 6.5 0L0 0Z" fill="#000000"></path><path d="M0 19L6.5 16.5C13 14 26 9 39 17.3C52 25.7 65 47.3 78 68.2C91 89 104 109 117.2 137C130.3 165 143.7 201 156.8 192.5C170 184 183 131 196 113.7C209 96.3 222 114.7 235 135.7C248 156.7 261 180.3 274 185.3C287 190.3 300 176.7 313 163.7C326 150.7 339 138.3 352 117.8C365 97.3 378 68.7 391 52.3C404 36 417 32 430.2 36.7C443.3 41.3 456.7 54.7 469.8 71.3C483 88 496 108 509 113.8C522 119.7 535 111.3 548 100.5C561 89.7 574 76.3 587 91.5C600 106.7 613 150.3 626 173.5C639 196.7 652 199.3 665 206C678 212.7 691 223.3 704 223.5C717 223.7 730 213.3 743.2 208.3C756.3 203.3 769.7 203.7 782.8 181.2C796 158.7 809 113.3 822 87C835 60.7 848 53.3 861 66.7C874 80 887 114 893.5 131L900 148L900 0L893.5 0C887 0 874 0 861 0C848 0 835 0 822 0C809 0 796 0 782.8 0C769.7 0 756.3 0 743.2 0C730 0 717 0 704 0C691 0 678 0 665 0C652 0 639 0 626 0C613 0 600 0 587 0C574 0 561 0 548 0C535 0 522 0 509 0C496 0 483 0 469.8 0C456.7 0 443.3 0 430.2 0C417 0 404 0 391 0C378 0 365 0 352 0C339 0 326 0 313 0C300 0 287 0 274 0C261 0 248 0 235 0C222 0 209 0 196 0C183 0 170 0 156.8 0C143.7 0 130.3 0 117.2 0C104 0 91 0 78 0C65 0 52 0 39 0C26 0 13 0 6.5 0L0 0Z" fill="#000000"></path></svg>