<svg id="visual" viewBox="0 0 900 600" width="900" height="600" xmlns="http://www.w3.org/2000/svg" xmlns:xlink="http://www.w3.org/1999/xlink" version="1.1"><path d="M0 272L15 280.5C30 289 60 306 90 302.3C120 298.7 150 274.3 180 255.8C210 237.3 240 224.7 270 237.5C300 250.3 330 288.7 360 311.5C390 334.3 420 341.7 450 317.5C480 293.3 510 237.7 540 227.7C570 217.7 600 253.3 630 275.8C660 298.3 690 307.7 720 283.7C750 259.7 780 202.3 810 176.8C840 151.3 870 157.7 885 160.8L900 164L900 0L885 0C870 0 840 0 810 0C780 0 750 0 720 0C690 0 660 0 630 0C600 0 570 0 540 0C510 0 480 0 450 0C420 0 390 0 360 0C330 0 300 0 270 0C240 0 210 0 180 0C150 0 120 0 90 0C60 0 30 0 15 0L0 0Z" fill="#000000" stroke-linecap="round" stroke-linejoin="miter"></path></svg>