<svg id="visual" viewBox="0 0 900 600" width="900" height="600" xmlns="http://www.w3.org/2000/svg" xmlns:xlink="http://www.w3.org/1999/xlink" version="1.1"><path d="M0 259L15 228.5C30 198 60 137 90 104.8C120 72.7 150 69.3 180 85.8C210 102.3 240 138.7 270 142.8C300 147 330 119 360 124.2C390 129.3 420 167.7 450 195.2C480 222.7 510 239.3 540 205.8C570 172.3 600 88.7 630 86.8C660 85 690 165 720 191C750 217 780 189 810 196.2C840 203.3 870 245.7 885 266.8L900 288L900 0L885 0C870 0 840 0 810 0C780 0 750 0 720 0C690 0 660 0 630 0C600 0 570 0 540 0C510 0 480 0 450 0C420 0 390 0 360 0C330 0 300 0 270 0C240 0 210 0 180 0C150 0 120 0 90 0C60 0 30 0 15 0L0 0Z" fill="#ffffff" stroke-linecap="round" stroke-linejoin="miter"></path></svg>