<svg id="visual" viewBox="0 0 900 600" width="900" height="600" xmlns="http://www.w3.org/2000/svg" xmlns:xlink="http://www.w3.org/1999/xlink" version="1.1"><path d="M0 46L15 54C30 62 60 78 90 104.5C120 131 150 168 180 195.3C210 222.7 240 240.3 270 212.5C300 184.7 330 111.3 360 118C390 124.7 420 211.3 450 253.2C480 295 510 292 540 243.7C570 195.3 600 101.7 630 90.3C660 79 690 150 720 157.2C750 164.3 780 107.7 810 110C840 112.3 870 173.7 885 204.3L900 235L900 0L885 0C870 0 840 0 810 0C780 0 750 0 720 0C690 0 660 0 630 0C600 0 570 0 540 0C510 0 480 0 450 0C420 0 390 0 360 0C330 0 300 0 270 0C240 0 210 0 180 0C150 0 120 0 90 0C60 0 30 0 15 0L0 0Z" fill="#000000" stroke-linecap="round" stroke-linejoin="miter"></path></svg>