<svg id="visual" viewBox="0 0 900 600" width="900" height="600" xmlns="http://www.w3.org/2000/svg" xmlns:xlink="http://www.w3.org/1999/xlink" version="1.1"><rect x="0" y="0" width="900" height="600" fill="#000000"></rect><path d="M0 442L7.5 423.5C15 405 30 368 45 347.3C60 326.7 75 322.3 90 341.3C105 360.3 120 402.7 135 416.5C150 430.3 165 415.7 180 394.5C195 373.3 210 345.7 225 330.3C240 315 255 312 270 317.2C285 322.3 300 335.7 315 338.5C330 341.3 345 333.7 360 357.2C375 380.7 390 435.3 405 462C420 488.7 435 487.3 450 480C465 472.7 480 459.3 495 425.7C510 392 525 338 540 321.2C555 304.3 570 324.7 585 357.3C600 390 615 435 630 455.3C645 475.7 660 471.3 675 440C690 408.7 705 350.3 720 338C735 325.7 750 359.3 765 364.5C780 369.7 795 346.3 810 337.3C825 328.3 840 333.7 855 353.7C870 373.7 885 408.3 892.5 425.7L900 443L900 601L892.5 601C885 601 870 601 855 601C840 601 825 601 810 601C795 601 780 601 765 601C750 601 735 601 720 601C705 601 690 601 675 601C660 601 645 601 630 601C615 601 600 601 585 601C570 601 555 601 540 601C525 601 510 601 495 601C480 601 465 601 450 601C435 601 420 601 405 601C390 601 375 601 360 601C345 601 330 601 315 601C300 601 285 601 270 601C255 601 240 601 225 601C210 601 195 601 180 601C165 601 150 601 135 601C120 601 105 601 90 601C75 601 60 601 45 601C30 601 15 601 7.5 601L0 601Z" fill="#ffffff" stroke-linecap="round" stroke-linejoin="miter"></path></svg>