<svg id="visual" viewBox="0 0 900 600" width="900" height="600" xmlns="http://www.w3.org/2000/svg" xmlns:xlink="http://www.w3.org/1999/xlink" version="1.1"><path d="M0 144L6.3 167C12.7 190 25.3 236 37.8 242.2C50.3 248.3 62.7 214.7 75.2 221.5C87.7 228.3 100.3 275.7 112.8 280.8C125.3 286 137.7 249 150.2 253.2C162.7 257.3 175.3 302.7 187.8 316C200.3 329.3 212.7 310.7 225.2 281C237.7 251.3 250.3 210.7 262.8 225.3C275.3 240 287.7 310 300.2 320.8C312.7 331.7 325.3 283.3 337.8 283.2C350.3 283 362.7 331 375.2 340.5C387.7 350 400.3 321 412.8 284.3C425.3 247.7 437.7 203.3 450 181.3C462.3 159.3 474.7 159.7 487.2 155.5C499.7 151.3 512.3 142.7 525 155C537.7 167.3 550.3 200.7 562.8 204C575.3 207.3 587.7 180.7 600.2 167C612.7 153.3 625.3 152.7 637.8 181C650.3 209.3 662.7 266.7 675.2 268.5C687.7 270.3 700.3 216.7 712.8 203C725.3 189.3 737.7 215.7 750.2 237.7C762.7 259.7 775.3 277.3 787.8 284.3C800.3 291.3 812.7 287.7 825.2 269.2C837.7 250.7 850.3 217.3 862.8 211.3C875.3 205.3 887.7 226.7 893.8 237.3L900 248L900 0L893.8 0C887.7 0 875.3 0 862.8 0C850.3 0 837.7 0 825.2 0C812.7 0 800.3 0 787.8 0C775.3 0 762.7 0 750.2 0C737.7 0 725.3 0 712.8 0C700.3 0 687.7 0 675.2 0C662.7 0 650.3 0 637.8 0C625.3 0 612.7 0 600.2 0C587.7 0 575.3 0 562.8 0C550.3 0 537.7 0 525 0C512.3 0 499.7 0 487.2 0C474.7 0 462.3 0 450 0C437.7 0 425.3 0 412.8 0C400.3 0 387.7 0 375.2 0C362.7 0 350.3 0 337.8 0C325.3 0 312.7 0 300.2 0C287.7 0 275.3 0 262.8 0C250.3 0 237.7 0 225.2 0C212.7 0 200.3 0 187.8 0C175.3 0 162.7 0 150.2 0C137.7 0 125.3 0 112.8 0C100.3 0 87.7 0 75.2 0C62.7 0 50.3 0 37.8 0C25.3 0 12.7 0 6.3 0L0 0Z" fill="#000000" stroke-linecap="round" stroke-linejoin="miter"></path></svg>