<svg id="visual" viewBox="0 0 900 600" width="900" height="600" xmlns="http://www.w3.org/2000/svg" xmlns:xlink="http://www.w3.org/1999/xlink" version="1.1"><path d="M0 380L7.5 387.7C15 395.3 30 410.7 45 408.3C60 406 75 386 90 371.7C105 357.3 120 348.7 135 346.2C150 343.7 165 347.3 180 362C195 376.7 210 402.3 225 415.2C240 428 255 428 270 422.7C285 417.3 300 406.7 315 401C330 395.3 345 394.7 360 381.5C375 368.3 390 342.7 405 328.7C420 314.7 435 312.3 450 329C465 345.7 480 381.3 495 407.8C510 434.3 525 451.7 540 446.5C555 441.3 570 413.7 585 395.3C600 377 615 368 630 365.5C645 363 660 367 675 372.2C690 377.3 705 383.7 720 393.5C735 403.3 750 416.7 765 417.5C780 418.3 795 406.7 810 391.2C825 375.7 840 356.3 855 343.8C870 331.3 885 325.7 892.5 322.8L900 320L900 601L892.5 601C885 601 870 601 855 601C840 601 825 601 810 601C795 601 780 601 765 601C750 601 735 601 720 601C705 601 690 601 675 601C660 601 645 601 630 601C615 601 600 601 585 601C570 601 555 601 540 601C525 601 510 601 495 601C480 601 465 601 450 601C435 601 420 601 405 601C390 601 375 601 360 601C345 601 330 601 315 601C300 601 285 601 270 601C255 601 240 601 225 601C210 601 195 601 180 601C165 601 150 601 135 601C120 601 105 601 90 601C75 601 60 601 45 601C30 601 15 601 7.5 601L0 601Z" fill="#ffffff" stroke-linecap="round" stroke-linejoin="miter"></path></svg>